<svg xmlns="http://www.w3.org/2000/svg" width="64" height="64" viewBox="0 0 64 64" fill="none">
  <rect width="64" height="64" rx="16" fill="#14213A"/>
  <path
    d="M32 10L47 16V28C47 40.4 39.16 51.56 32 54C24.84 51.56 17 40.4 17 28V16L32 10Z"
    fill="#3B82F6"
  />
  <path
    d="M32 18L41 21.6V28.2C41 36.6 35.92 43.22 32 44.8C28.08 43.22 23 36.6 23 28.2V21.6L32 18Z"
    fill="#EAF2FF"
  />
  <path
    d="M32 24L35.09 30.26L42 31.27L37 36.14L38.18 43L32 39.75L25.82 43L27 36.14L22 31.27L28.91 30.26L32 24Z"
    fill="#3B82F6"
  />
</svg>
